<svg width="16" height="17" viewBox="0 0 16 17" fill="none" xmlns="http://www.w3.org/2000/svg">
<path d="M11.6875 2.75V2.8125H11.75H14.875C15.0242 2.8125 15.1673 2.87176 15.2727 2.97725C15.3782 3.08274 15.4375 3.22582 15.4375 3.375C15.4375 3.52418 15.3782 3.66726 15.2727 3.77275C15.1673 3.87824 15.0242 3.9375 14.875 3.9375H14.25H14.1875V4V15.25C14.1875 15.5649 14.0624 15.867 13.8397 16.0897C13.617 16.3124 13.3149 16.4375 13 16.4375H3C2.68506 16.4375 2.38301 16.3124 2.16031 16.0897C1.93761 15.867 1.8125 15.5649 1.8125 15.25V4V3.9375H1.75H1.125C0.975816 3.9375 0.832742 3.87824 0.727253 3.77275C0.621763 3.66726 0.5625 3.52418 0.5625 3.375C0.5625 3.22582 0.621763 3.08274 0.727253 2.97725C0.832742 2.87176 0.975816 2.8125 1.125 2.8125H4.25H4.3125V2.75V2.125C4.3125 1.6443 4.50346 1.18328 4.84337 0.843369C5.18328 0.503459 5.64429 0.3125 6.125 0.3125H9.875C10.3557 0.3125 10.8167 0.503459 11.1566 0.843369C11.4965 1.18328 11.6875 1.6443 11.6875 2.125V2.75ZM10.5 2.8125H10.5625V2.75V2.125C10.5625 1.94266 10.4901 1.7678 10.3611 1.63886C10.2322 1.50993 10.0573 1.4375 9.875 1.4375H6.125C5.94266 1.4375 5.7678 1.50993 5.63886 1.63886C5.50993 1.7678 5.4375 1.94266 5.4375 2.125V2.75V2.8125H5.5H10.5ZM13 15.3125H13.0625V15.25V4V3.9375H13H3H2.9375V4V15.25V15.3125H3H13ZM6.6875 7.125V12.125C6.6875 12.2742 6.62824 12.4173 6.52275 12.5227C6.41726 12.6282 6.27418 12.6875 6.125 12.6875C5.97582 12.6875 5.83274 12.6282 5.72725 12.5227C5.62176 12.4173 5.5625 12.2742 5.5625 12.125V7.125C5.5625 6.97582 5.62176 6.83274 5.72725 6.72725C5.83274 6.62176 5.97582 6.5625 6.125 6.5625C6.27418 6.5625 6.41726 6.62176 6.52275 6.72725C6.62824 6.83274 6.6875 6.97582 6.6875 7.125ZM10.4375 7.125V12.125C10.4375 12.2742 10.3782 12.4173 10.2727 12.5227C10.1673 12.6282 10.0242 12.6875 9.875 12.6875C9.72582 12.6875 9.58274 12.6282 9.47725 12.5227C9.37176 12.4173 9.3125 12.2742 9.3125 12.125V7.125C9.3125 6.97582 9.37176 6.83274 9.47725 6.72725C9.58274 6.62176 9.72582 6.5625 9.875 6.5625C10.0242 6.5625 10.1673 6.62176 10.2727 6.72725C10.3782 6.83274 10.4375 6.97582 10.4375 7.125Z" fill="#D42620" stroke="white" stroke-width="0.125"/>
</svg>
