<svg width="85" height="36" viewBox="0 0 85 36" fill="none" xmlns="http://www.w3.org/2000/svg">
<rect x="0.5" y="0.5" width="84" height="35" rx="7.5" fill="white"/>
<rect x="0.5" y="0.5" width="84" height="35" rx="7.5" stroke="#CBD5E1"/>
<path d="M15.3334 13C15.3334 12.5398 15.7065 12.1667 16.1667 12.1667H27.8334C28.2936 12.1667 28.6667 12.5398 28.6667 13C28.6667 13.4603 28.2936 13.8334 27.8334 13.8334H16.1667C15.7065 13.8334 15.3334 13.4603 15.3334 13Z" fill="#334155"/>
<path d="M17 18C17 17.5398 17.3731 17.1667 17.8334 17.1667H26.1667C26.6269 17.1667 27 17.5398 27 18C27 18.4603 26.6269 18.8334 26.1667 18.8334H17.8334C17.3731 18.8334 17 18.4603 17 18Z" fill="#334155"/>
<path d="M19.5 22.1667C19.0398 22.1667 18.6667 22.5398 18.6667 23C18.6667 23.4603 19.0398 23.8334 19.5 23.8334H24.5C24.9603 23.8334 25.3334 23.4603 25.3334 23C25.3334 22.5398 24.9603 22.1667 24.5 22.1667H19.5Z" fill="#334155"/>
<path d="M46.7799 18.814H42.9719V23H41.1799V12.766H47.5079V14.418H42.9719V17.204H46.7799V18.814ZM49.7253 14.698C49.1373 14.698 48.6753 14.236 48.6753 13.662C48.6753 13.088 49.1373 12.64 49.7253 12.64C50.2853 12.64 50.7473 13.088 50.7473 13.662C50.7473 14.236 50.2853 14.698 49.7253 14.698ZM48.8713 23V16.084H50.5793V23H48.8713ZM54.0659 23H52.3719V12.584H54.0659V23ZM58.2096 23H56.5016V17.512H55.1716V16.084H56.5016V13.928H58.2096V16.084H59.5536V17.512H58.2096V23ZM63.641 23.182C61.583 23.182 60.141 21.684 60.141 19.542C60.141 17.372 61.555 15.874 63.585 15.874C65.657 15.874 66.973 17.26 66.973 19.416V19.934L61.765 19.948C61.891 21.166 62.535 21.782 63.669 21.782C64.607 21.782 65.223 21.418 65.419 20.76H67.001C66.707 22.272 65.447 23.182 63.641 23.182ZM63.599 17.274C62.591 17.274 61.975 17.82 61.807 18.856H65.279C65.279 17.904 64.621 17.274 63.599 17.274ZM72.68 16.056V17.638H72.05C70.818 17.638 70.048 18.296 70.048 19.64V23H68.34V16.098H69.95L70.048 17.106C70.342 16.42 71 15.958 71.924 15.958C72.162 15.958 72.4 15.986 72.68 16.056Z" fill="#334155"/>
</svg>
