<svg width="64" height="45" viewBox="0 0 64 45" fill="none" xmlns="http://www.w3.org/2000/svg">
<path d="M33.125 16.875C33.125 17.0975 33.059 17.315 32.9354 17.5C32.8118 17.685 32.6361 17.8292 32.4305 17.9144C32.225 17.9995 31.9988 18.0218 31.7805 17.9784C31.5623 17.935 31.3618 17.8278 31.2045 17.6705C31.0472 17.5132 30.94 17.3127 30.8966 17.0945C30.8532 16.8762 30.8755 16.65 30.9606 16.4445C31.0458 16.2389 31.19 16.0632 31.375 15.9396C31.56 15.816 31.7775 15.75 32 15.75C32.2984 15.75 32.5845 15.8685 32.7955 16.0795C33.0065 16.2905 33.125 16.5766 33.125 16.875ZM32 6.75C29.9319 6.75 28.25 8.26406 28.25 10.125V10.5C28.25 10.6989 28.329 10.8897 28.4697 11.0303C28.6103 11.171 28.8011 11.25 29 11.25C29.1989 11.25 29.3897 11.171 29.5303 11.0303C29.671 10.8897 29.75 10.6989 29.75 10.5V10.125C29.75 9.09375 30.7597 8.25 32 8.25C33.2403 8.25 34.25 9.09375 34.25 10.125C34.25 11.1562 33.2403 12 32 12C31.8011 12 31.6103 12.079 31.4697 12.2197C31.329 12.3603 31.25 12.5511 31.25 12.75V13.5C31.25 13.6989 31.329 13.8897 31.4697 14.0303C31.6103 14.171 31.8011 14.25 32 14.25C32.1989 14.25 32.3897 14.171 32.5303 14.0303C32.671 13.8897 32.75 13.6989 32.75 13.5V13.4325C34.46 13.1184 35.75 11.7544 35.75 10.125C35.75 8.26406 34.0681 6.75 32 6.75ZM41.75 12C41.75 13.9284 41.1782 15.8134 40.1068 17.4168C39.0355 19.0202 37.5127 20.2699 35.7312 21.0078C33.9496 21.7458 31.9892 21.9389 30.0979 21.5627C28.2066 21.1865 26.4693 20.2579 25.1057 18.8943C23.7422 17.5307 22.8136 15.7934 22.4373 13.9021C22.0611 12.0108 22.2542 10.0504 22.9922 8.26884C23.7301 6.48726 24.9798 4.96451 26.5832 3.89317C28.1866 2.82183 30.0716 2.25 32 2.25C34.585 2.25273 37.0634 3.28084 38.8913 5.10872C40.7192 6.93661 41.7473 9.41498 41.75 12ZM40.25 12C40.25 10.3683 39.7661 8.77325 38.8596 7.41655C37.9531 6.05984 36.6646 5.00242 35.1571 4.37799C33.6497 3.75357 31.9909 3.59019 30.3905 3.90852C28.7902 4.22685 27.3202 5.01259 26.1664 6.16637C25.0126 7.32015 24.2269 8.79016 23.9085 10.3905C23.5902 11.9908 23.7536 13.6496 24.378 15.1571C25.0024 16.6646 26.0598 17.9531 27.4165 18.8596C28.7733 19.7661 30.3683 20.25 32 20.25C34.1873 20.2475 36.2843 19.3775 37.8309 17.8309C39.3775 16.2843 40.2475 14.1873 40.25 12Z" fill="#667185"/>
<path d="M11.408 32.408V41H10.544V32.408H11.408ZM14.1451 41H13.3171V35.192H14.0371L14.1571 36.2C14.5411 35.456 15.3091 35.036 16.1491 35.036C17.7451 35.036 18.4051 35.984 18.4051 37.448V41H17.5771V37.628C17.5771 36.272 16.9651 35.792 16.0051 35.792C14.8171 35.792 14.1451 36.656 14.1451 37.964V41ZM19.6474 38.072C19.6474 36.32 20.6554 35.036 22.3354 35.036C23.3074 35.036 24.1114 35.468 24.5314 36.368L24.6154 35.192H25.3354V43.532H24.5074V39.884C24.0994 40.724 23.3194 41.144 22.3354 41.144C20.6194 41.144 19.6474 39.824 19.6474 38.072ZM20.4874 38.096C20.4874 39.428 21.2194 40.4 22.4794 40.4C23.7514 40.4 24.4954 39.428 24.4954 38.096C24.4954 36.752 23.7514 35.792 22.4794 35.792C21.2194 35.792 20.4874 36.752 20.4874 38.096ZM31.1432 35.192H31.9712V41H31.2512L31.1432 40.016C30.8192 40.688 30.0152 41.144 29.1032 41.144C27.7352 41.144 26.9912 40.208 26.9912 38.792V35.18H27.8312V38.528C27.8312 39.908 28.4432 40.4 29.3672 40.4C30.4832 40.4 31.1432 39.656 31.1432 38.276V35.192ZM34.104 33.596C33.768 33.596 33.492 33.32 33.492 32.984C33.492 32.648 33.768 32.36 34.104 32.36C34.44 32.36 34.728 32.648 34.728 32.984C34.728 33.32 34.44 33.596 34.104 33.596ZM33.696 41V35.192H34.524V41H33.696ZM39.2867 35.12V35.864H38.8307C37.7627 35.864 37.0787 36.584 37.0787 37.688V41H36.2507V35.192H37.0307L37.0907 36.092C37.3187 35.468 37.9307 35.06 38.7467 35.06C38.9267 35.06 39.0827 35.072 39.2867 35.12ZM40.7954 33.596C40.4594 33.596 40.1834 33.32 40.1834 32.984C40.1834 32.648 40.4594 32.36 40.7954 32.36C41.1314 32.36 41.4194 32.648 41.4194 32.984C41.4194 33.32 41.1314 33.596 40.7954 33.596ZM40.3874 41V35.192H41.2154V41H40.3874ZM45.3781 41.144C43.6741 41.144 42.5341 39.92 42.5341 38.096C42.5341 36.284 43.6621 35.036 45.3181 35.036C46.8901 35.036 47.9581 36.152 47.9581 37.796V38.204H43.3381C43.3981 39.62 44.1421 40.436 45.3901 40.436C46.3381 40.436 46.9501 40.028 47.1661 39.26H47.9581C47.6461 40.484 46.7461 41.144 45.3781 41.144ZM45.3181 35.744C44.2261 35.744 43.5061 36.464 43.3621 37.604H47.1301C47.1301 36.488 46.4101 35.744 45.3181 35.744ZM48.79 39.368H49.582C49.582 40.04 50.086 40.46 50.902 40.46C51.802 40.46 52.33 40.076 52.33 39.452C52.33 38.972 52.09 38.696 51.406 38.528L50.41 38.276C49.402 38.024 48.91 37.496 48.91 36.704C48.91 35.684 49.762 35.036 51.01 35.036C52.234 35.036 53.026 35.708 53.062 36.788H52.258C52.234 36.116 51.766 35.72 50.986 35.72C50.17 35.72 49.714 36.068 49.714 36.692C49.714 37.136 50.026 37.448 50.662 37.604L51.658 37.856C52.666 38.108 53.122 38.576 53.122 39.416C53.122 40.46 52.234 41.144 50.914 41.144C49.606 41.144 48.79 40.448 48.79 39.368Z" fill="#647995"/>
</svg>
