<svg width="88" height="45" viewBox="0 0 88 45" fill="none" xmlns="http://www.w3.org/2000/svg">
<path d="M47.7494 21C47.7494 21.1989 47.6704 21.3897 47.5298 21.5303C47.3891 21.671 47.1984 21.75 46.9994 21.75H40.9994C40.8005 21.75 40.6098 21.671 40.4691 21.5303C40.3285 21.3897 40.2494 21.1989 40.2494 21C40.2494 20.8011 40.3285 20.6103 40.4691 20.4697C40.6098 20.329 40.8005 20.25 40.9994 20.25H46.9994C47.1984 20.25 47.3891 20.329 47.5298 20.4697C47.6704 20.6103 47.7494 20.8011 47.7494 21ZM52.7979 18C52.6678 18.2292 52.4788 18.4196 52.2506 18.5514C52.0223 18.6833 51.763 18.7518 51.4994 18.75H36.4994C36.2358 18.7496 35.9768 18.6798 35.7487 18.5475C35.5207 18.4151 35.3315 18.225 35.2003 17.9963C35.0691 17.7676 35.0005 17.5083 35.0015 17.2446C35.0024 16.9809 35.0729 16.7222 35.2057 16.4944C35.726 15.5981 36.4994 13.0631 36.4994 9.75C36.4994 7.76088 37.2896 5.85322 38.6961 4.4467C40.1027 3.04018 42.0103 2.25 43.9994 2.25C45.9886 2.25 47.8962 3.04018 49.3027 4.4467C50.7093 5.85322 51.4994 7.76088 51.4994 9.75C51.4994 13.0622 52.2738 15.5981 52.7941 16.4944C52.9283 16.7225 52.9993 16.9822 52.9998 17.2468C53.0002 17.5114 52.9302 17.7714 52.7969 18H52.7979ZM51.4994 17.25C50.7748 16.0059 49.9994 13.1297 49.9994 9.75C49.9994 8.1587 49.3673 6.63258 48.2421 5.50736C47.1169 4.38214 45.5907 3.75 43.9994 3.75C42.4081 3.75 40.882 4.38214 39.7568 5.50736C38.6316 6.63258 37.9994 8.1587 37.9994 9.75C37.9994 13.1306 37.2232 16.0069 36.4994 17.25H51.4994Z" fill="#667185"/>
<path d="M13.408 41H12.544V32.408H13.42L18.148 39.56V32.408H19V41H18.148L13.408 33.848V41ZM20.5107 38.096C20.5107 36.32 21.7587 35.036 23.4627 35.036C25.1667 35.036 26.4147 36.32 26.4147 38.096C26.4147 39.86 25.1667 41.144 23.4627 41.144C21.7587 41.144 20.5107 39.86 20.5107 38.096ZM21.3507 38.084C21.3507 39.452 22.2147 40.4 23.4627 40.4C24.6987 40.4 25.5747 39.452 25.5747 38.084C25.5747 36.74 24.6987 35.78 23.4627 35.78C22.2147 35.78 21.3507 36.74 21.3507 38.084ZM29.0124 41H28.1964V35.888H27.0324V35.192H28.1964V33.356H29.0124V35.192H30.1764V35.888H29.0124V41ZM31.6626 33.596C31.3266 33.596 31.0506 33.32 31.0506 32.984C31.0506 32.648 31.3266 32.36 31.6626 32.36C31.9986 32.36 32.2866 32.648 32.2866 32.984C32.2866 33.32 31.9986 33.596 31.6626 33.596ZM31.2546 41V35.192H32.0826V41H31.2546ZM33.1613 35.192H34.0493V34.064C34.0493 32.756 34.7693 32.252 35.6573 32.252C35.8613 32.252 36.1013 32.264 36.2933 32.3V33.008H35.8013C35.0693 33.008 34.8773 33.38 34.8773 34.064V35.192H36.2453V35.888H34.8773V41H34.0493V35.888H33.1613V35.192ZM37.7798 33.596C37.4438 33.596 37.1678 33.32 37.1678 32.984C37.1678 32.648 37.4438 32.36 37.7798 32.36C38.1158 32.36 38.4038 32.648 38.4038 32.984C38.4038 33.32 38.1158 33.596 37.7798 33.596ZM37.3718 41V35.192H38.1998V41H37.3718ZM39.5185 38.108C39.5185 36.284 40.6345 35.036 42.3265 35.036C43.6705 35.036 44.6545 35.816 44.8825 37.016H44.0545C43.8385 36.212 43.1425 35.768 42.3385 35.768C41.1625 35.768 40.3345 36.668 40.3345 38.096C40.3345 39.476 41.1025 40.4 42.2785 40.4C43.1425 40.4 43.8385 39.92 44.0665 39.176H44.9065C44.6305 40.364 43.5985 41.144 42.2785 41.144C40.6345 41.144 39.5185 39.932 39.5185 38.108ZM47.8289 41.144C46.5929 41.144 45.8609 40.448 45.8609 39.428C45.8609 38.36 46.6769 37.688 48.0329 37.58L49.9529 37.424V37.232C49.9529 36.092 49.2689 35.732 48.4169 35.732C47.4089 35.732 46.8089 36.188 46.8089 36.968H46.0529C46.0529 35.792 47.0129 35.036 48.4409 35.036C49.7849 35.036 50.7689 35.708 50.7689 37.244V41H50.0729L49.9649 39.98C49.6049 40.712 48.8129 41.144 47.8289 41.144ZM48.0209 40.472C49.2449 40.472 49.9529 39.62 49.9529 38.36V38.048L48.2369 38.18C47.1449 38.276 46.7009 38.756 46.7009 39.404C46.7009 40.112 47.2289 40.472 48.0209 40.472ZM53.6569 41H52.8409V35.888H51.6769V35.192H52.8409V33.356H53.6569V35.192H54.8209V35.888H53.6569V41ZM56.3072 33.596C55.9712 33.596 55.6952 33.32 55.6952 32.984C55.6952 32.648 55.9712 32.36 56.3072 32.36C56.6432 32.36 56.9312 32.648 56.9312 32.984C56.9312 33.32 56.6432 33.596 56.3072 33.596ZM55.8992 41V35.192H56.7272V41H55.8992ZM58.0458 38.096C58.0458 36.32 59.2938 35.036 60.9978 35.036C62.7018 35.036 63.9498 36.32 63.9498 38.096C63.9498 39.86 62.7018 41.144 60.9978 41.144C59.2938 41.144 58.0458 39.86 58.0458 38.096ZM58.8858 38.084C58.8858 39.452 59.7498 40.4 60.9978 40.4C62.2338 40.4 63.1098 39.452 63.1098 38.084C63.1098 36.74 62.2338 35.78 60.9978 35.78C59.7498 35.78 58.8858 36.74 58.8858 38.084ZM66.1022 41H65.2742V35.192H65.9942L66.1142 36.2C66.4982 35.456 67.2662 35.036 68.1062 35.036C69.7022 35.036 70.3622 35.984 70.3622 37.448V41H69.5342V37.628C69.5342 36.272 68.9222 35.792 67.9622 35.792C66.7742 35.792 66.1022 36.656 66.1022 37.964V41ZM71.4501 39.368H72.2421C72.2421 40.04 72.7461 40.46 73.5621 40.46C74.4621 40.46 74.9901 40.076 74.9901 39.452C74.9901 38.972 74.7501 38.696 74.0661 38.528L73.0701 38.276C72.0621 38.024 71.5701 37.496 71.5701 36.704C71.5701 35.684 72.4221 35.036 73.6701 35.036C74.8941 35.036 75.6861 35.708 75.7221 36.788H74.9181C74.8941 36.116 74.4261 35.72 73.6461 35.72C72.8301 35.72 72.3741 36.068 72.3741 36.692C72.3741 37.136 72.6861 37.448 73.3221 37.604L74.3181 37.856C75.3261 38.108 75.7821 38.576 75.7821 39.416C75.7821 40.46 74.8941 41.144 73.5741 41.144C72.2661 41.144 71.4501 40.448 71.4501 39.368Z" fill="#647995"/>
</svg>
