<svg width="64" height="45" viewBox="0 0 64 45" fill="none" xmlns="http://www.w3.org/2000/svg">
<path opacity="0.2" d="M39.4864 11.5481L41.0595 9.57932C40.8473 8.7817 40.5299 8.01591 40.1155 7.30213L37.6123 7.02088C37.4124 6.79559 37.1992 6.5824 36.9739 6.38244L36.6927 3.87838C35.9781 3.46647 35.212 3.15122 34.4145 2.94088L32.4458 4.51307C32.1448 4.49525 31.843 4.49525 31.542 4.51307L29.5733 2.93994C28.7783 3.15275 28.015 3.47021 27.3036 3.884L27.0223 6.38713C26.7971 6.58709 26.5839 6.80028 26.3839 7.02557L23.8798 7.30682C23.4679 8.02137 23.1527 8.78744 22.9423 9.58494L24.5145 11.5537C24.4967 11.8547 24.4967 12.1565 24.5145 12.4574L22.9414 14.4262C23.1536 15.2238 23.4711 15.9896 23.8855 16.7034L26.3886 16.9846C26.5886 17.2099 26.8017 17.4231 27.027 17.6231L27.3083 20.1271C28.0228 20.539 28.7889 20.8543 29.5864 21.0646L31.5552 19.4924C31.8561 19.5103 32.1579 19.5103 32.4589 19.4924L34.4277 21.0656C35.2253 20.8534 35.9911 20.5359 36.7048 20.1215L36.9861 17.6184C37.2114 17.4184 37.4246 17.2052 37.6245 16.9799L40.1286 16.6987C40.5405 15.9841 40.8558 15.2181 41.0661 14.4206L39.4939 12.4518C39.5092 12.1507 39.5067 11.8489 39.4864 11.5481ZM31.9995 15.7499C31.2579 15.7499 30.5328 15.53 29.9161 15.118C29.2995 14.7059 28.8188 14.1202 28.535 13.435C28.2512 12.7498 28.1769 11.9958 28.3216 11.2684C28.4663 10.5409 28.8234 9.87274 29.3479 9.34829C29.8723 8.82384 30.5405 8.46669 31.2679 8.322C31.9954 8.1773 32.7494 8.25156 33.4346 8.53539C34.1198 8.81922 34.7055 9.29987 35.1175 9.91655C35.5296 10.5332 35.7495 11.2583 35.7495 11.9999C35.7495 12.9945 35.3544 13.9483 34.6512 14.6516C33.9479 15.3549 32.9941 15.7499 31.9995 15.7499Z" fill="#0D6EFD"/>
<path d="M32 7.50004C31.11 7.50004 30.24 7.76396 29.5 8.25843C28.76 8.7529 28.1832 9.4557 27.8426 10.278C27.502 11.1002 27.4129 12.005 27.5865 12.8779C27.7601 13.7509 28.1887 14.5527 28.8181 15.182C29.4474 15.8114 30.2492 16.2399 31.1221 16.4136C31.9951 16.5872 32.8998 16.4981 33.7221 16.1575C34.5444 15.8169 35.2472 15.2401 35.7417 14.5001C36.2361 13.7601 36.5 12.8901 36.5 12C36.4988 10.8069 36.0243 9.66308 35.1807 8.81943C34.337 7.97579 33.1931 7.50128 32 7.50004ZM32 15C31.4067 15 30.8267 14.8241 30.3333 14.4945C29.84 14.1648 29.4555 13.6963 29.2284 13.1481C29.0013 12.5999 28.9419 11.9967 29.0577 11.4148C29.1734 10.8328 29.4592 10.2983 29.8787 9.87872C30.2983 9.45916 30.8328 9.17344 31.4148 9.05769C31.9967 8.94193 32.5999 9.00134 33.1481 9.2284C33.6963 9.45547 34.1648 9.83998 34.4945 10.3333C34.8241 10.8267 35 11.4067 35 12C35 12.7957 34.684 13.5588 34.1214 14.1214C33.5588 14.684 32.7957 15 32 15ZM40.25 12.2025C40.2538 12.0675 40.2538 11.9325 40.25 11.7975L41.6488 10.05C41.7221 9.95829 41.7729 9.85059 41.797 9.73563C41.8211 9.62067 41.8179 9.50165 41.7875 9.38817C41.5578 8.52637 41.2148 7.69884 40.7675 6.92723C40.7089 6.82628 40.6275 6.7404 40.5299 6.67644C40.4322 6.61248 40.321 6.57219 40.205 6.55879L37.9813 6.31129C37.8888 6.21379 37.795 6.12004 37.7 6.03004L37.4375 3.80067C37.424 3.68462 37.3836 3.57332 37.3195 3.47566C37.2554 3.37801 37.1693 3.29668 37.0682 3.23817C36.2966 2.79121 35.469 2.44884 34.6072 2.22004C34.4937 2.18972 34.3747 2.18648 34.2598 2.21058C34.1448 2.23468 34.0371 2.28545 33.9454 2.35879L32.2025 3.75004C32.0675 3.75004 31.9325 3.75004 31.7975 3.75004L30.05 2.35411C29.9583 2.28076 29.8506 2.23 29.7356 2.2059C29.6207 2.1818 29.5016 2.18504 29.3882 2.21536C28.5264 2.44507 27.6988 2.78806 26.9272 3.23536C26.8263 3.29397 26.7404 3.37535 26.6764 3.473C26.6125 3.57065 26.5722 3.68189 26.5588 3.79785L26.3113 6.02535C26.2138 6.11848 26.12 6.21223 26.03 6.3066L23.8007 6.56254C23.6846 6.57604 23.5733 6.61647 23.4757 6.6806C23.378 6.74473 23.2967 6.83079 23.2382 6.93192C22.7913 7.70363 22.4486 8.53114 22.2191 9.39286C22.1889 9.50641 22.1858 9.62547 22.2101 9.74044C22.2344 9.8554 22.2853 9.96306 22.3588 10.0547L23.75 11.7975C23.75 11.9325 23.75 12.0675 23.75 12.2025L22.3541 13.95C22.2808 14.0418 22.23 14.1495 22.2059 14.2645C22.1818 14.3794 22.185 14.4984 22.2154 14.6119C22.4451 15.4737 22.7881 16.3012 23.2354 17.0729C23.294 17.1738 23.3753 17.2597 23.473 17.3236C23.5707 17.3876 23.6819 17.4279 23.7979 17.4413L26.0216 17.6888C26.1147 17.7863 26.2085 17.88 26.3029 17.97L26.5625 20.1994C26.576 20.3155 26.6165 20.4268 26.6806 20.5244C26.7447 20.6221 26.8308 20.7034 26.9319 20.7619C27.7036 21.2088 28.5311 21.5514 29.3929 21.781C29.5064 21.8112 29.6255 21.8143 29.7404 21.79C29.8554 21.7657 29.9631 21.7148 30.0547 21.6413L31.7975 20.25C31.9325 20.2538 32.0675 20.2538 32.2025 20.25L33.95 21.6488C34.0418 21.7221 34.1495 21.7729 34.2645 21.797C34.3794 21.8211 34.4984 21.8179 34.6119 21.7875C35.4739 21.5582 36.3014 21.2152 37.0729 20.7675C37.1738 20.7089 37.2597 20.6275 37.3236 20.5299C37.3876 20.4322 37.4279 20.321 37.4413 20.205L37.6888 17.9813C37.7863 17.8888 37.88 17.795 37.97 17.7L40.1994 17.4375C40.3155 17.424 40.4268 17.3836 40.5244 17.3195C40.6221 17.2554 40.7034 17.1693 40.7619 17.0682C41.2088 16.2965 41.5514 15.4689 41.781 14.6072C41.8112 14.4937 41.8143 14.3746 41.79 14.2596C41.7657 14.1447 41.7148 14.037 41.6413 13.9454L40.25 12.2025ZM38.7407 11.5932C38.7566 11.8642 38.7566 12.1359 38.7407 12.4069C38.7295 12.5925 38.7876 12.7755 38.9038 12.9207L40.2341 14.5829C40.0815 15.068 39.886 15.5386 39.65 15.9891L37.5313 16.2291C37.3468 16.2496 37.1764 16.3378 37.0532 16.4766C36.8727 16.6796 36.6805 16.8718 36.4775 17.0522C36.3387 17.1755 36.2505 17.3458 36.23 17.5304L35.9947 19.6472C35.5443 19.8833 35.0736 20.0788 34.5885 20.2313L32.9254 18.901C32.7923 18.7946 32.627 18.7368 32.4566 18.7369H32.4116C32.1406 18.7529 31.8689 18.7529 31.5979 18.7369C31.4124 18.7263 31.2295 18.7844 31.0841 18.9L29.4172 20.2313C28.9321 20.0786 28.4615 19.8832 28.011 19.6472L27.771 17.5313C27.7505 17.3468 27.6623 17.1764 27.5235 17.0532C27.3205 16.8727 27.1283 16.6805 26.9479 16.4775C26.8246 16.3387 26.6542 16.2505 26.4697 16.23L24.3529 15.9938C24.1168 15.5433 23.9213 15.0727 23.7688 14.5875L25.0991 12.9244C25.2153 12.7793 25.2734 12.5962 25.2622 12.4107C25.2463 12.1397 25.2463 11.8679 25.2622 11.5969C25.2734 11.4114 25.2153 11.2283 25.0991 11.0832L23.7688 9.41723C23.9214 8.9321 24.1169 8.4615 24.3529 8.01098L26.4688 7.77098C26.6533 7.7505 26.8237 7.66231 26.9469 7.52348C27.1274 7.32052 27.3196 7.12831 27.5225 6.94785C27.6619 6.82452 27.7505 6.65377 27.771 6.46879L28.0063 4.35286C28.4568 4.11679 28.9274 3.92132 29.4125 3.76879L31.0757 5.0991C31.2208 5.21527 31.4039 5.2734 31.5894 5.26223C31.8604 5.24629 32.1322 5.24629 32.4032 5.26223C32.5886 5.27286 32.7715 5.21479 32.9169 5.0991L34.5829 3.76879C35.068 3.92144 35.5386 4.1169 35.9891 4.35286L36.2291 6.46879C36.2496 6.65331 36.3378 6.82367 36.4766 6.94692C36.6796 7.12738 36.8718 7.31958 37.0522 7.52254C37.1755 7.66137 37.3458 7.74956 37.5304 7.77004L39.6472 8.00535C39.8833 8.45583 40.0788 8.92644 40.2313 9.4116L38.901 11.0747C38.7837 11.2211 38.7255 11.406 38.7379 11.5932H38.7407Z" fill="#0D6EFD"/>
<path d="M10.504 34.664C10.504 33.176 11.704 32.168 13.492 32.168C15.148 32.168 16.216 33.092 16.312 34.592H15.124C15.064 33.728 14.452 33.224 13.48 33.224C12.388 33.224 11.68 33.776 11.68 34.628C11.68 35.324 12.076 35.744 12.892 35.936L14.32 36.272C15.736 36.596 16.456 37.364 16.456 38.588C16.456 40.148 15.244 41.144 13.396 41.144C11.632 41.144 10.456 40.22 10.384 38.732H11.584C11.608 39.56 12.304 40.088 13.396 40.088C14.548 40.088 15.28 39.548 15.28 38.684C15.28 38 14.908 37.568 14.08 37.376L12.652 37.052C11.236 36.728 10.504 35.912 10.504 34.664ZM20.2738 41.144C18.5458 41.144 17.3578 39.896 17.3578 38.072C17.3578 36.236 18.5218 34.964 20.2258 34.964C21.8938 34.964 22.9858 36.116 22.9858 37.856V38.276L18.4498 38.288C18.5338 39.524 19.1818 40.208 20.2978 40.208C21.1738 40.208 21.7498 39.848 21.9418 39.176H22.9978C22.7098 40.436 21.7258 41.144 20.2738 41.144ZM20.2258 35.912C19.2418 35.912 18.6178 36.5 18.4738 37.532H21.8578C21.8578 36.56 21.2218 35.912 20.2258 35.912ZM25.8431 41H24.7151V36.08H23.5631V35.132H24.7151V33.296H25.8431V35.132H26.9951V36.08H25.8431V41ZM29.7689 41H28.6409V36.08H27.4889V35.132H28.6409V33.296H29.7689V35.132H30.9209V36.08H29.7689V41ZM32.4852 33.74C32.0772 33.74 31.7412 33.404 31.7412 32.996C31.7412 32.576 32.0772 32.252 32.4852 32.252C32.8932 32.252 33.2292 32.576 33.2292 32.996C33.2292 33.404 32.8932 33.74 32.4852 33.74ZM31.9332 41V35.132H33.0612V41H31.9332ZM35.8268 41H34.6988V35.132H35.7188L35.8388 36.032C36.2108 35.36 36.9548 34.964 37.7828 34.964C39.3308 34.964 40.0388 35.912 40.0388 37.412V41H38.9108V37.664C38.9108 36.476 38.3588 35.996 37.4948 35.996C36.4388 35.996 35.8268 36.752 35.8268 37.892V41ZM41.2292 37.916C41.2292 36.26 42.2972 34.964 44.0012 34.964C44.9492 34.964 45.6812 35.396 46.0532 36.128L46.1372 35.132H47.1452V40.76C47.1452 42.608 46.0052 43.784 44.2052 43.784C42.6092 43.784 41.5172 42.884 41.3012 41.396H42.4292C42.5732 42.26 43.2212 42.764 44.2052 42.764C45.3092 42.764 46.0292 42.044 46.0292 40.928V39.752C45.6452 40.436 44.8772 40.844 43.9532 40.844C42.2852 40.844 41.2292 39.56 41.2292 37.916ZM42.3572 37.892C42.3572 38.996 43.0412 39.86 44.1452 39.86C45.2852 39.86 45.9812 39.044 45.9812 37.892C45.9812 36.764 45.3092 35.948 44.1572 35.948C43.0292 35.948 42.3572 36.812 42.3572 37.892ZM48.293 39.296H49.373C49.373 39.896 49.829 40.256 50.573 40.256C51.365 40.256 51.821 39.932 51.821 39.392C51.821 38.996 51.629 38.756 51.017 38.6L49.985 38.36C48.941 38.108 48.449 37.592 48.449 36.728C48.449 35.648 49.361 34.964 50.657 34.964C51.941 34.964 52.781 35.684 52.805 36.8H51.725C51.701 36.212 51.305 35.84 50.621 35.84C49.913 35.84 49.517 36.152 49.517 36.692C49.517 37.088 49.805 37.352 50.381 37.496L51.413 37.748C52.409 37.988 52.901 38.444 52.901 39.32C52.901 40.436 51.941 41.144 50.549 41.144C49.169 41.144 48.293 40.412 48.293 39.296Z" fill="#0D6EFD"/>
</svg>
