<svg width="64" height="45" viewBox="0 0 64 45" fill="none" xmlns="http://www.w3.org/2000/svg">
<path d="M40.25 6.75H25.25C25.0511 6.75 24.8603 6.67098 24.7197 6.53033C24.579 6.38968 24.5 6.19891 24.5 6C24.5 5.80109 24.579 5.61032 24.7197 5.46967C24.8603 5.32902 25.0511 5.25 25.25 5.25H38C38.1989 5.25 38.3897 5.17098 38.5303 5.03033C38.671 4.88968 38.75 4.69891 38.75 4.5C38.75 4.30109 38.671 4.11032 38.5303 3.96967C38.3897 3.82902 38.1989 3.75 38 3.75H25.25C24.6533 3.75 24.081 3.98705 23.659 4.40901C23.2371 4.83097 23 5.40326 23 6V18C23 18.5967 23.2371 19.169 23.659 19.591C24.081 20.0129 24.6533 20.25 25.25 20.25H40.25C40.6478 20.25 41.0294 20.092 41.3107 19.8107C41.592 19.5294 41.75 19.1478 41.75 18.75V8.25C41.75 7.85218 41.592 7.47064 41.3107 7.18934C41.0294 6.90804 40.6478 6.75 40.25 6.75ZM40.25 18.75H25.25C25.0511 18.75 24.8603 18.671 24.7197 18.5303C24.579 18.3897 24.5 18.1989 24.5 18V8.12156C24.7408 8.20693 24.9945 8.25037 25.25 8.25H40.25V18.75ZM35.75 13.125C35.75 12.9025 35.816 12.685 35.9396 12.5C36.0632 12.315 36.2389 12.1708 36.4445 12.0856C36.65 12.0005 36.8762 11.9782 37.0945 12.0216C37.3127 12.065 37.5132 12.1722 37.6705 12.3295C37.8278 12.4868 37.935 12.6873 37.9784 12.9055C38.0218 13.1238 37.9995 13.35 37.9144 13.5555C37.8292 13.7611 37.685 13.9368 37.5 14.0604C37.315 14.184 37.0975 14.25 36.875 14.25C36.5766 14.25 36.2905 14.1315 36.0795 13.9205C35.8685 13.7095 35.75 13.4234 35.75 13.125Z" fill="#667185"/>
<path d="M18.236 41L15.68 32.408H16.58L18.32 38.312C18.44 38.732 18.548 39.164 18.656 39.728C18.8 39.104 18.92 38.732 19.052 38.312L20.924 32.408H21.824L23.696 38.312C23.828 38.744 23.948 39.176 24.08 39.728C24.212 39.068 24.32 38.648 24.416 38.324L26.192 32.408H27.068L24.488 41H23.672L21.368 33.704L19.064 41H18.236ZM29.0008 41.144C27.7648 41.144 27.0328 40.448 27.0328 39.428C27.0328 38.36 27.8488 37.688 29.2048 37.58L31.1248 37.424V37.232C31.1248 36.092 30.4408 35.732 29.5888 35.732C28.5808 35.732 27.9808 36.188 27.9808 36.968H27.2248C27.2248 35.792 28.1848 35.036 29.6128 35.036C30.9568 35.036 31.9408 35.708 31.9408 37.244V41H31.2448L31.1368 39.98C30.7768 40.712 29.9848 41.144 29.0008 41.144ZM29.1928 40.472C30.4168 40.472 31.1248 39.62 31.1248 38.36V38.048L29.4088 38.18C28.3168 38.276 27.8728 38.756 27.8728 39.404C27.8728 40.112 28.4008 40.472 29.1928 40.472ZM34.4663 41H33.6383V32.252H34.4663V41ZM37.0913 41H36.2633V32.252H37.0913V41ZM41.2883 41.144C39.5843 41.144 38.4443 39.92 38.4443 38.096C38.4443 36.284 39.5723 35.036 41.2283 35.036C42.8003 35.036 43.8683 36.152 43.8683 37.796V38.204H39.2483C39.3083 39.62 40.0523 40.436 41.3003 40.436C42.2483 40.436 42.8603 40.028 43.0763 39.26H43.8683C43.5563 40.484 42.6563 41.144 41.2883 41.144ZM41.2283 35.744C40.1363 35.744 39.4163 36.464 39.2723 37.604H43.0403C43.0403 36.488 42.3203 35.744 41.2283 35.744ZM46.4655 41H45.6495V35.888H44.4855V35.192H45.6495V33.356H46.4655V35.192H47.6295V35.888H46.4655V41Z" fill="#647995"/>
</svg>
